<?xml version="1.0" standalone="no"?>
<!DOCTYPE svg PUBLIC "-//W3C//DTD SVG 20010904//EN"
 "http://www.w3.org/TR/2001/REC-SVG-20010904/DTD/svg10.dtd">
<svg version="1.0" xmlns="http://www.w3.org/2000/svg"
 width="225.000000pt" height="225.000000pt" viewBox="0 0 225.000000 225.000000"
 preserveAspectRatio="xMidYMid meet">

<g transform="translate(0.000000,225.000000) scale(0.100000,-0.100000)"
fill="#000000" stroke="none">
<path d="M781 1400 c-7 -4 -12 -13 -10 -19 3 -8 10 -8 23 2 21 15 9 31 -13 17z"/>
<path d="M890 1375 c0 -24 -5 -35 -15 -35 -8 0 -15 -4 -15 -10 0 -5 7 -10 15
-10 11 0 15 -11 15 -40 0 -29 4 -40 15 -40 12 0 15 16 15 85 0 69 -3 85 -15
85 -10 0 -15 -11 -15 -35z"/>
<path d="M979 1384 c-24 -26 -25 -101 -1 -101 11 0 13 11 9 44 -5 47 -1 52 49
63 31 7 36 5 49 -20 19 -37 19 -74 0 -90 -8 -7 -15 -20 -14 -29 0 -10 2 -11 6
-3 2 6 12 12 21 12 15 0 15 2 2 10 -13 8 -13 10 1 10 17 0 29 19 29 46 0 9 -5
12 -11 8 -8 -4 -9 0 -4 15 4 15 3 21 -6 19 -7 -2 -13 2 -14 7 -2 40 -81 46
-116 9z"/>
<path d="M1188 1403 c-19 -5 -34 -45 -23 -62 3 -6 27 -16 51 -22 47 -12 65
-32 45 -52 -18 -18 -13 -28 8 -15 11 7 17 16 15 20 -3 4 0 8 5 8 6 0 11 5 11
11 0 5 -4 7 -10 4 -6 -4 -7 1 -3 11 5 13 3 16 -10 11 -10 -4 -17 -2 -17 4 0 6
-7 9 -15 5 -8 -3 -15 -1 -15 3 0 5 -7 12 -16 15 -10 4 -13 2 -8 -7 4 -6 -3 -2
-15 10 -26 27 -26 30 -2 43 14 7 28 7 48 -2 42 -17 52 -17 46 -2 -3 8 -8 15
-12 15 -26 5 -69 6 -83 2z"/>
<path d="M1340 1399 c11 -8 12 -12 3 -16 -9 -3 -13 -28 -13 -74 0 -55 3 -69
15 -69 10 0 15 11 15 35 0 24 5 35 15 35 8 0 15 4 15 10 0 5 -7 7 -15 4 -12
-5 -15 2 -15 30 0 35 1 36 41 36 24 0 38 -4 34 -10 -3 -5 1 -10 9 -10 22 0 9
27 -17 34 -12 3 -40 6 -62 6 -31 0 -37 -3 -25 -11z m15 -79 c3 -5 1 -10 -4
-10 -6 0 -11 5 -11 10 0 6 2 10 4 10 3 0 8 -4 11 -10z m-8 -52 c-3 -7 -5 -2
-5 12 0 14 2 19 5 13 2 -7 2 -19 0 -25z"/>
<path d="M1501 1325 c-1 -70 2 -85 14 -85 12 0 15 16 15 85 0 65 -3 85 -13 85
-11 0 -14 -21 -16 -85z"/>
<path d="M1560 1400 c0 -5 14 -10 30 -10 l30 0 0 -75 c0 -60 3 -75 15 -75 12
0 15 14 15 63 0 36 -5 68 -12 75 -9 9 -4 12 25 12 20 0 37 5 37 10 0 6 -30 10
-70 10 -40 0 -70 -4 -70 -10z"/>
<path d="M1755 1400 c-10 -16 5 -31 26 -25 12 4 19 2 19 -6 0 -7 2 -10 5 -8 2
3 2 15 -2 27 -5 23 -37 30 -48 12z"/>
<path d="M1891 1350 c-1 -72 16 -81 21 -10 3 54 1 70 -12 70 -4 0 -8 -27 -9
-60z"/>
<path d="M631 1354 c0 -11 3 -14 6 -6 3 7 2 16 -1 19 -3 4 -6 -2 -5 -13z"/>
<path d="M790 1323 c0 -32 -5 -53 -12 -56 -10 -4 -10 -7 -1 -18 7 -7 15 -10
19 -7 9 10 12 105 3 120 -5 8 -9 -7 -9 -39z"/>
<path d="M1726 1325 c-10 -24 -15 -49 -11 -55 3 -5 1 -10 -4 -10 -6 0 -11 -4
-11 -10 0 -18 16 -10 29 13 10 18 19 23 38 19 19 -4 24 -1 18 7 -4 7 -14 10
-22 7 -12 -5 -14 1 -8 34 9 54 -8 51 -29 -5z m10 -31 c-4 -9 -9 -15 -11 -12
-3 3 -3 13 1 22 4 9 9 15 11 12 3 -3 3 -13 -1 -22z"/>
<path d="M1451 1353 c-1 -6 -10 -15 -21 -18 -19 -6 -28 -25 -12 -25 18 0 44
28 39 41 -3 8 -6 9 -6 2z"/>
<path d="M1810 1345 c-1 -5 -3 -21 -6 -34 -3 -18 -1 -22 11 -17 8 3 15 1 15
-4 0 -6 -5 -10 -10 -10 -6 0 -5 -8 2 -20 30 -48 32 -3 2 65 -7 17 -13 26 -14
20z"/>
<path d="M820 1330 c0 -5 5 -10 10 -10 6 0 10 5 10 10 0 6 -4 10 -10 10 -5 0
-10 -4 -10 -10z"/>
<path d="M1160 1280 c8 -5 11 -10 7 -10 -5 0 -2 -7 7 -15 16 -17 56 -20 56 -5
0 6 -3 9 -7 9 -25 -4 -43 3 -43 16 0 8 -8 15 -17 15 -15 0 -16 -2 -3 -10z"/>
<path d="M1893 1260 c-2 -18 4 -20 53 -20 30 0 54 5 54 10 0 6 -11 8 -25 4
-16 -4 -34 0 -50 10 -31 20 -30 20 -32 -4z"/>
<path d="M988 1263 c7 -3 16 -2 19 1 4 3 -2 6 -13 5 -11 0 -14 -3 -6 -6z"/>
<path d="M1021 1257 c2 -1 12 -9 22 -16 15 -12 17 -12 11 3 -3 9 -13 16 -22
16 -8 0 -13 -1 -11 -3z"/>
<path d="M631 1234 c0 -11 3 -14 6 -6 3 7 2 16 -1 19 -3 4 -6 -2 -5 -13z"/>
<path d="M810 1110 c-13 -11 -20 -23 -16 -27 4 -4 10 -3 14 2 4 6 17 16 29 22
20 11 25 10 47 -14 27 -28 41 -28 30 1 -7 17 -43 36 -68 36 -7 0 -23 -9 -36
-20z"/>
<path d="M1027 1124 c-13 -14 -7 -26 7 -15 10 8 16 9 19 1 3 -6 4 -5 3 2 -3
14 -20 21 -29 12z"/>
<path d="M1820 1120 c0 -5 3 -9 8 -9 24 4 40 -3 45 -21 3 -11 12 -20 21 -20
28 0 1 36 -35 49 -39 13 -39 13 -39 1z"/>
<path d="M982 1097 c-21 -22 -30 -43 -14 -34 4 3 8 -6 8 -19 1 -13 -2 -21 -7
-18 -19 11 -8 -24 16 -50 25 -27 67 -34 95 -16 8 5 11 10 7 10 -4 0 -2 6 5 14
7 8 16 12 21 9 4 -2 7 3 7 11 0 24 -24 19 -35 -6 -12 -27 -49 -35 -81 -18 -19
10 -22 18 -17 49 2 20 9 48 13 64 11 33 9 33 -18 4z"/>
<path d="M1075 1110 c-8 -12 16 -50 32 -50 7 0 13 5 13 11 0 5 -5 7 -12 3 -7
-5 -9 -2 -6 7 6 17 -18 43 -27 29z"/>
<path d="M1160 1040 c0 -45 5 -82 11 -85 16 -10 16 -7 20 79 4 69 2 79 -13 82
-16 2 -18 -7 -18 -76z m30 50 c0 -5 -5 -10 -11 -10 -5 0 -7 5 -4 10 3 6 8 10
11 10 2 0 4 -4 4 -10z m-13 -87 c-3 -10 -5 -2 -5 17 0 19 2 27 5 18 2 -10 2
-26 0 -35z"/>
<path d="M1297 1101 c-5 -21 11 -25 26 -6 5 6 6 0 2 -11 -3 -14 0 -24 8 -27
11 -4 14 3 13 26 -1 24 -7 33 -22 35 -15 2 -23 -4 -27 -17z"/>
<path d="M1430 1082 c-7 -21 -20 -56 -31 -79 -23 -51 -23 -53 -6 -53 9 0 14
12 15 31 0 18 6 37 12 43 9 8 11 6 6 -9 -5 -17 -1 -20 24 -22 17 -1 30 2 30 7
0 6 -8 10 -19 10 -24 0 -32 31 -15 54 15 21 34 13 34 -15 0 -10 4 -19 9 -19 5
0 7 -9 4 -20 -3 -11 -1 -20 5 -20 5 0 12 -9 15 -20 5 -20 27 -28 27 -10 0 6
-4 10 -10 10 -5 0 -7 7 -4 15 4 10 0 15 -12 15 -16 0 -16 2 -4 10 12 8 12 11
-2 27 -8 10 -13 24 -10 32 2 8 0 11 -6 7 -5 -3 -13 1 -16 10 -3 8 -2 12 4 9 6
-3 10 -1 10 4 0 6 -3 11 -7 12 -5 0 -16 2 -25 4 -12 2 -20 -7 -28 -33z"/>
<path d="M1572 1054 c2 -34 6 -60 11 -57 10 6 9 -5 -3 -28 -9 -15 -7 -19 6
-19 13 0 15 8 12 39 -2 22 0 37 5 34 5 -3 5 12 1 33 -5 30 -3 40 12 51 17 13
16 13 -14 11 l-32 -2 2 -62z"/>
<path d="M1670 1110 c0 -5 5 -10 11 -10 6 0 8 -7 5 -17 -4 -9 -1 -20 6 -24 8
-5 -3 -11 -30 -15 -44 -7 -50 -22 -9 -20 47 3 71 48 44 84 -11 14 -27 16 -27
2z"/>
<path d="M1989 1098 c-23 -42 -29 -78 -13 -78 8 0 15 8 15 18 1 9 2 22 4 27 1
6 3 16 3 23 3 23 20 12 27 -17 3 -16 16 -37 27 -47 21 -18 21 -18 15 -1 -4 10
-7 23 -7 28 0 6 -4 8 -9 5 -5 -3 -9 0 -8 7 1 33 -5 45 -23 50 -14 3 -24 -1
-31 -15z"/>
<path d="M2123 1038 l2 -83 58 -3 c35 -2 57 1 57 8 0 5 -18 10 -40 10 -25 0
-40 5 -41 13 0 6 -4 3 -9 -8 -6 -12 -7 12 -3 63 5 70 4 82 -10 82 -12 0 -15
-14 -14 -82z"/>
<path d="M1211 1084 c-1 -41 19 -98 30 -87 5 5 1 32 -10 64 -17 47 -20 50 -20
23z"/>
<path d="M1774 1096 c-12 -10 -16 -18 -9 -25 7 -6 16 -1 28 15 20 27 11 32
-19 10z"/>
<path d="M773 1062 c1 -12 6 -18 15 -15 7 3 10 9 5 12 -4 3 -11 10 -15 15 -4
4 -6 -1 -5 -12z"/>
<path d="M1280 1065 c0 -5 5 -17 10 -25 5 -8 10 -10 10 -5 0 6 -5 17 -10 25
-5 8 -10 11 -10 5z"/>
<path d="M1753 1034 c0 -13 3 -24 8 -24 5 0 7 -6 5 -12 -1 -7 -1 -10 1 -5 3 4
9 4 15 1 14 -9 -1 36 -17 52 -10 10 -12 8 -12 -12z"/>
<path d="M1100 1040 c0 -5 7 -10 15 -10 8 0 15 5 15 10 0 6 -7 10 -15 10 -8 0
-15 -4 -15 -10z"/>
<path d="M1323 1006 c3 -64 24 -73 24 -11 0 25 -4 40 -8 34 -5 -8 -9 -6 -12 7
-3 10 -5 -3 -4 -30z"/>
<path d="M777 1024 c-11 -11 -8 -36 3 -29 6 3 10 -2 10 -11 0 -10 3 -14 7 -11
3 4 14 0 24 -9 23 -20 75 -10 90 18 6 11 8 22 5 25 -8 9 -28 -8 -23 -21 3 -7
-10 -12 -33 -14 -33 -2 -41 2 -57 28 -11 17 -22 27 -26 24z"/>
<path d="M1270 1021 c0 -7 -7 -19 -15 -28 -17 -17 -16 -34 3 -41 7 -2 12 5 12
15 0 11 5 24 12 31 9 9 9 15 0 24 -9 9 -12 9 -12 -1z"/>
<path d="M1685 1009 c-4 -5 -4 -13 -1 -16 3 -4 6 0 7 8 0 8 4 6 9 -6 7 -16 9
-17 9 -3 1 21 -15 32 -24 17z"/>
<path d="M1872 989 c-11 -18 -20 -21 -53 -16 -34 4 -38 3 -28 -9 6 -8 26 -14
45 -14 25 0 38 7 54 30 15 21 17 30 8 30 -7 0 -19 -10 -26 -21z"/>
<path d="M1995 1000 c4 -6 14 -10 23 -8 10 1 23 -1 30 -5 6 -5 12 -4 12 1 0
12 -24 22 -51 22 -12 0 -17 -5 -14 -10z"/>
<path d="M1947 993 c-9 -9 -9 -33 1 -33 4 0 13 9 20 20 10 16 10 20 -1 20 -8
0 -17 -3 -20 -7z"/>
<path d="M2066 985 c-7 -18 0 -35 14 -35 5 0 7 10 5 21 -6 29 -11 33 -19 14z"/>
<path d="M1695 960 c-3 -5 -1 -10 4 -10 6 0 11 5 11 10 0 6 -2 10 -4 10 -3 0
-8 -4 -11 -10z"/>
<path d="M838 823 c-4 -19 17 -60 42 -81 13 -10 13 -11 -2 -6 -12 4 -18 1 -18
-7 0 -20 47 -75 56 -66 4 4 -1 14 -12 23 -10 8 -13 13 -6 9 6 -3 12 -4 12 0 0
3 -10 10 -22 15 -18 7 -19 9 -5 9 9 1 17 3 17 5 0 14 -32 76 -40 76 -5 0 -7 6
-4 14 3 8 1 17 -5 20 -5 3 -11 -2 -13 -11z"/>
<path d="M970 829 c0 -6 -4 -8 -9 -5 -4 3 -9 -32 -9 -79 -1 -74 1 -83 15 -78
12 5 13 8 5 11 -10 3 -10 7 -1 19 10 12 10 17 -2 25 -11 7 -11 11 -1 15 6 2
12 14 12 24 0 11 4 18 9 15 11 -7 22 20 15 38 -7 18 -34 29 -34 15z m26 -27
c1 -7 0 -8 -3 -2 -8 16 -23 12 -23 -7 0 -9 -3 -14 -6 -10 -4 3 -4 13 0 22 7
18 28 16 32 -3z"/>
<path d="M1091 826 c-6 -7 -9 -21 -5 -30 3 -9 2 -16 -4 -16 -6 0 -14 -13 -20
-28 -8 -23 -7 -29 4 -29 8 0 14 8 14 16 0 9 7 27 16 39 8 12 13 26 9 31 -3 5
-1 12 4 15 4 3 12 -18 17 -47 7 -47 8 -49 12 -18 7 67 -18 103 -47 67z"/>
<path d="M1185 831 c-3 -2 -4 -27 -4 -55 1 -29 4 -39 6 -23 2 15 9 27 15 27 6
0 8 9 5 20 -5 18 0 20 40 20 31 0 42 -3 37 -12 -4 -6 -3 -8 3 -5 7 4 10 -3 9
-18 -1 -19 -8 -27 -26 -31 -14 -3 -31 -7 -37 -9 -7 -2 -17 4 -22 13 -9 15 -10
14 -8 -5 1 -20 7 -23 45 -23 26 0 41 4 37 10 -3 6 0 10 8 10 23 0 29 42 9 63
-16 16 -106 30 -117 18z"/>
<path d="M1388 823 c-28 -18 -56 -73 -37 -73 6 0 7 -4 4 -10 -3 -5 -2 -10 3
-10 6 0 13 15 16 34 9 49 29 62 71 48 37 -11 48 1 16 18 -27 14 -41 12 -73 -7z"/>
<path d="M1580 827 c-28 -14 -38 -48 -18 -64 7 -6 26 -13 41 -17 24 -6 27 -5
15 8 -7 7 -21 12 -30 11 -11 -3 -15 1 -11 11 3 8 0 14 -7 14 -7 0 -5 6 5 16
21 22 63 21 79 -1 8 -11 15 -14 19 -8 16 26 -56 50 -93 30z"/>
<path d="M1717 834 c-14 -14 -7 -24 18 -24 23 0 25 -3 25 -50 0 -32 4 -50 12
-50 9 0 9 -3 0 -12 -16 -16 -15 -28 3 -28 12 0 15 14 15 70 l0 70 31 0 c20 0
28 4 23 11 -4 7 -26 10 -60 6 -31 -3 -54 -1 -56 4 -2 6 -7 7 -11 3z m63 -39
c0 -14 -2 -25 -4 -25 -2 0 -6 11 -8 25 -3 14 -1 25 3 25 5 0 9 -11 9 -25z m-3
-67 c-3 -7 -5 -2 -5 12 0 14 2 19 5 13 2 -7 2 -19 0 -25z"/>
<path d="M813 813 c-3 -10 -11 -32 -18 -49 -11 -27 -10 -32 6 -42 10 -7 27
-12 36 -11 14 0 14 2 -4 9 -16 7 -21 17 -21 39 1 17 4 28 8 26 4 -3 8 7 8 20
0 29 -6 32 -15 8z"/>
<path d="M1880 774 c-16 -40 -20 -58 -12 -66 8 -8 9 -4 5 13 -5 21 -4 22 8 8
16 -20 79 -31 79 -15 0 6 4 5 9 -3 5 -8 7 -20 5 -26 -3 -7 1 -15 10 -18 12 -5
11 5 -6 54 -12 36 -24 56 -31 52 -6 -4 -8 0 -4 10 9 24 -2 47 -23 47 -12 0
-25 -17 -40 -56z m55 36 c3 -6 -1 -7 -9 -4 -14 5 -14 3 -1 -22 8 -16 15 -37
15 -46 0 -25 -37 -23 -51 3 -8 15 -8 19 0 15 6 -4 12 1 13 11 0 10 2 23 3 28
2 6 3 13 4 18 2 10 19 9 26 -3z"/>
<path d="M1488 800 c-3 -8 -5 -34 -4 -57 1 -35 -3 -44 -24 -56 -21 -12 -30
-12 -55 -1 -16 7 -25 13 -20 14 13 0 -16 20 -30 20 -5 0 -3 -5 5 -10 8 -5 11
-10 7 -10 -4 0 -2 -6 5 -14 7 -8 16 -12 21 -9 4 2 7 0 7 -6 0 -11 51 -6 78 8
27 14 42 71 28 107 -9 20 -14 24 -18 14z"/>
<path d="M1016 736 c6 -57 10 -66 29 -66 13 0 29 29 20 38 -3 3 -5 -1 -5 -9 0
-18 -24 17 -38 56 -10 27 -10 25 -6 -19z"/>
<path d="M1111 744 c0 -11 3 -14 6 -6 3 7 2 16 -1 19 -3 4 -6 -2 -5 -13z"/>
<path d="M1645 744 c2 -11 4 -19 5 -19 1 0 3 -8 5 -17 2 -10 -1 -18 -6 -18 -5
0 -9 -5 -9 -10 0 -7 6 -7 20 0 25 13 25 35 1 62 -18 19 -19 19 -16 2z"/>
<path d="M770 701 c-13 -26 -13 -31 4 -31 13 0 26 20 26 41 0 16 -19 10 -30
-10z"/>
<path d="M1111 693 c-1 -25 2 -31 14 -27 8 4 15 18 15 33 0 18 -3 22 -9 12 -7
-11 -9 -11 -14 0 -3 8 -6 0 -6 -18z"/>
<path d="M1181 698 c-1 -19 4 -28 14 -28 8 0 15 9 15 21 0 11 -4 18 -9 15 -5
-4 -12 0 -14 6 -3 7 -6 1 -6 -14z"/>
<path d="M1546 695 c10 -26 84 -48 84 -25 0 6 -13 10 -30 10 -18 0 -29 5 -27
12 1 6 -6 14 -15 16 -13 2 -16 -1 -12 -13z"/>
<path d="M1846 693 c-11 -11 -6 -23 9 -23 8 0 15 4 15 9 0 13 -16 22 -24 14z"/>
</g>
</svg>
